<mxfile host="app.diagrams.net" modified="2021-11-11T01:44:42.462Z" agent="5.0 (Windows NT 10.0; Win64; x64) AppleWebKit/537.36 (KHTML, like Gecko) Chrome/95.0.4638.69 Safari/537.36" etag="poCQUq4fHDuheyLUKHKV" version="13.1.2" type="github">
  <diagram id="I3HuD63Fgw3JZTLhCGQr" name="Page-1">
    <mxGraphModel dx="1422" dy="1905" grid="1" gridSize="10" guides="1" tooltips="1" connect="1" arrows="1" fold="1" page="1" pageScale="1" pageWidth="850" pageHeight="1100" math="0" shadow="0">
      <root>
        <mxCell id="0" />
        <mxCell id="1" parent="0" />
        <mxCell id="k3wcYFaPdhqrJYiVyXbm-30" style="edgeStyle=orthogonalEdgeStyle;rounded=0;orthogonalLoop=1;jettySize=auto;html=1;entryX=0.5;entryY=0;entryDx=0;entryDy=0;" parent="1" source="k3wcYFaPdhqrJYiVyXbm-2" target="k3wcYFaPdhqrJYiVyXbm-24" edge="1">
          <mxGeometry relative="1" as="geometry" />
        </mxCell>
        <mxCell id="k3wcYFaPdhqrJYiVyXbm-2" value="START&lt;br&gt;Welcom to Hangman" style="rounded=1;whiteSpace=wrap;html=1;" parent="1" vertex="1">
          <mxGeometry x="340" y="-100" width="120" height="60" as="geometry" />
        </mxCell>
        <mxCell id="k3wcYFaPdhqrJYiVyXbm-15" value="" style="edgeStyle=orthogonalEdgeStyle;rounded=0;orthogonalLoop=1;jettySize=auto;html=1;" parent="1" source="k3wcYFaPdhqrJYiVyXbm-4" target="k3wcYFaPdhqrJYiVyXbm-14" edge="1">
          <mxGeometry relative="1" as="geometry" />
        </mxCell>
        <mxCell id="k3wcYFaPdhqrJYiVyXbm-21" value="" style="edgeStyle=orthogonalEdgeStyle;rounded=0;orthogonalLoop=1;jettySize=auto;html=1;" parent="1" source="k3wcYFaPdhqrJYiVyXbm-67" target="k3wcYFaPdhqrJYiVyXbm-20" edge="1">
          <mxGeometry relative="1" as="geometry" />
        </mxCell>
        <mxCell id="k3wcYFaPdhqrJYiVyXbm-4" value="Load a Random&lt;br&gt;Dictionary Word" style="rhombus;whiteSpace=wrap;html=1;" parent="1" vertex="1">
          <mxGeometry x="325" y="130" width="150" height="130" as="geometry" />
        </mxCell>
        <mxCell id="k3wcYFaPdhqrJYiVyXbm-14" value="STOP" style="rounded=1;whiteSpace=wrap;html=1;" parent="1" vertex="1">
          <mxGeometry x="695" y="165" width="120" height="60" as="geometry" />
        </mxCell>
        <mxCell id="k3wcYFaPdhqrJYiVyXbm-16" value="NO" style="text;html=1;align=center;verticalAlign=middle;resizable=0;points=[];autosize=1;" parent="1" vertex="1">
          <mxGeometry x="460" y="265" width="30" height="20" as="geometry" />
        </mxCell>
        <mxCell id="k3wcYFaPdhqrJYiVyXbm-17" value="YES" style="text;html=1;align=center;verticalAlign=middle;resizable=0;points=[];autosize=1;" parent="1" vertex="1">
          <mxGeometry x="405" y="330" width="40" height="20" as="geometry" />
        </mxCell>
        <mxCell id="k3wcYFaPdhqrJYiVyXbm-23" value="" style="edgeStyle=orthogonalEdgeStyle;rounded=0;orthogonalLoop=1;jettySize=auto;html=1;" parent="1" source="k3wcYFaPdhqrJYiVyXbm-20" target="k3wcYFaPdhqrJYiVyXbm-22" edge="1">
          <mxGeometry relative="1" as="geometry" />
        </mxCell>
        <mxCell id="k3wcYFaPdhqrJYiVyXbm-20" value="Ask User Input" style="shape=parallelogram;perimeter=parallelogramPerimeter;whiteSpace=wrap;html=1;" parent="1" vertex="1">
          <mxGeometry x="340" y="410" width="120" height="60" as="geometry" />
        </mxCell>
        <mxCell id="k3wcYFaPdhqrJYiVyXbm-36" value="" style="edgeStyle=orthogonalEdgeStyle;rounded=0;orthogonalLoop=1;jettySize=auto;html=1;" parent="1" source="k3wcYFaPdhqrJYiVyXbm-22" target="k3wcYFaPdhqrJYiVyXbm-31" edge="1">
          <mxGeometry relative="1" as="geometry" />
        </mxCell>
        <mxCell id="k3wcYFaPdhqrJYiVyXbm-22" value="Read User Input" style="shape=parallelogram;perimeter=parallelogramPerimeter;whiteSpace=wrap;html=1;" parent="1" vertex="1">
          <mxGeometry x="340" y="530" width="120" height="60" as="geometry" />
        </mxCell>
        <mxCell id="k3wcYFaPdhqrJYiVyXbm-27" value="" style="edgeStyle=orthogonalEdgeStyle;rounded=0;orthogonalLoop=1;jettySize=auto;html=1;" parent="1" source="k3wcYFaPdhqrJYiVyXbm-24" target="k3wcYFaPdhqrJYiVyXbm-4" edge="1">
          <mxGeometry relative="1" as="geometry" />
        </mxCell>
        <mxCell id="k3wcYFaPdhqrJYiVyXbm-24" value="Present Game Drawing&lt;br&gt;" style="shape=parallelogram;perimeter=parallelogramPerimeter;whiteSpace=wrap;html=1;" parent="1" vertex="1">
          <mxGeometry x="260" y="20" width="280" height="60" as="geometry" />
        </mxCell>
        <mxCell id="k3wcYFaPdhqrJYiVyXbm-34" value="" style="edgeStyle=orthogonalEdgeStyle;rounded=0;orthogonalLoop=1;jettySize=auto;html=1;" parent="1" source="k3wcYFaPdhqrJYiVyXbm-31" edge="1">
          <mxGeometry relative="1" as="geometry">
            <mxPoint x="400" y="850" as="targetPoint" />
          </mxGeometry>
        </mxCell>
        <mxCell id="k3wcYFaPdhqrJYiVyXbm-52" value="" style="edgeStyle=orthogonalEdgeStyle;rounded=0;orthogonalLoop=1;jettySize=auto;html=1;" parent="1" source="k3wcYFaPdhqrJYiVyXbm-31" target="k3wcYFaPdhqrJYiVyXbm-44" edge="1">
          <mxGeometry relative="1" as="geometry" />
        </mxCell>
        <mxCell id="k3wcYFaPdhqrJYiVyXbm-31" value="Found UI In&amp;nbsp;&lt;br&gt;Dictionary&amp;nbsp;&lt;br&gt;Word" style="rhombus;whiteSpace=wrap;html=1;" parent="1" vertex="1">
          <mxGeometry x="325" y="640" width="150" height="130" as="geometry" />
        </mxCell>
        <mxCell id="k3wcYFaPdhqrJYiVyXbm-32" value="Actor" style="shape=umlActor;verticalLabelPosition=bottom;labelBackgroundColor=#ffffff;verticalAlign=top;html=1;outlineConnect=0;" parent="1" vertex="1">
          <mxGeometry x="950" y="570" width="30" height="60" as="geometry" />
        </mxCell>
        <mxCell id="k3wcYFaPdhqrJYiVyXbm-39" value="NO" style="text;html=1;align=center;verticalAlign=middle;resizable=0;points=[];autosize=1;" parent="1" vertex="1">
          <mxGeometry x="490" y="680" width="30" height="20" as="geometry" />
        </mxCell>
        <mxCell id="k3wcYFaPdhqrJYiVyXbm-56" value="" style="edgeStyle=orthogonalEdgeStyle;rounded=0;orthogonalLoop=1;jettySize=auto;html=1;" parent="1" source="k3wcYFaPdhqrJYiVyXbm-40" target="k3wcYFaPdhqrJYiVyXbm-46" edge="1">
          <mxGeometry relative="1" as="geometry" />
        </mxCell>
        <mxCell id="k3wcYFaPdhqrJYiVyXbm-59" value="" style="edgeStyle=orthogonalEdgeStyle;rounded=0;orthogonalLoop=1;jettySize=auto;html=1;" parent="1" source="k3wcYFaPdhqrJYiVyXbm-40" target="k3wcYFaPdhqrJYiVyXbm-58" edge="1">
          <mxGeometry relative="1" as="geometry" />
        </mxCell>
        <mxCell id="k3wcYFaPdhqrJYiVyXbm-40" value="If Lives == 0" style="rhombus;whiteSpace=wrap;html=1;" parent="1" vertex="1">
          <mxGeometry x="680" y="640" width="150" height="130" as="geometry" />
        </mxCell>
        <mxCell id="k3wcYFaPdhqrJYiVyXbm-70" value="" style="edgeStyle=orthogonalEdgeStyle;rounded=0;orthogonalLoop=1;jettySize=auto;html=1;" parent="1" source="k3wcYFaPdhqrJYiVyXbm-43" target="k3wcYFaPdhqrJYiVyXbm-69" edge="1">
          <mxGeometry relative="1" as="geometry" />
        </mxCell>
        <mxCell id="k3wcYFaPdhqrJYiVyXbm-43" value="Add letters&lt;br&gt;To Solution" style="shape=parallelogram;perimeter=parallelogramPerimeter;whiteSpace=wrap;html=1;align=center;" parent="1" vertex="1">
          <mxGeometry x="295" y="850" width="210" height="60" as="geometry" />
        </mxCell>
        <mxCell id="k3wcYFaPdhqrJYiVyXbm-53" value="" style="edgeStyle=orthogonalEdgeStyle;rounded=0;orthogonalLoop=1;jettySize=auto;html=1;" parent="1" source="k3wcYFaPdhqrJYiVyXbm-44" target="k3wcYFaPdhqrJYiVyXbm-40" edge="1">
          <mxGeometry relative="1" as="geometry" />
        </mxCell>
        <mxCell id="k3wcYFaPdhqrJYiVyXbm-44" value="LIves-=1" style="shape=parallelogram;perimeter=parallelogramPerimeter;whiteSpace=wrap;html=1;" parent="1" vertex="1">
          <mxGeometry x="530" y="675" width="120" height="60" as="geometry" />
        </mxCell>
        <mxCell id="k3wcYFaPdhqrJYiVyXbm-51" style="edgeStyle=orthogonalEdgeStyle;rounded=0;orthogonalLoop=1;jettySize=auto;html=1;exitX=0.5;exitY=0;exitDx=0;exitDy=0;entryX=1;entryY=0.5;entryDx=0;entryDy=0;" parent="1" source="k3wcYFaPdhqrJYiVyXbm-46" target="k3wcYFaPdhqrJYiVyXbm-20" edge="1">
          <mxGeometry relative="1" as="geometry">
            <mxPoint x="480" y="360" as="targetPoint" />
            <Array as="points">
              <mxPoint x="1020" y="440" />
            </Array>
          </mxGeometry>
        </mxCell>
        <mxCell id="k3wcYFaPdhqrJYiVyXbm-46" value="Add a Limb" style="shape=parallelogram;perimeter=parallelogramPerimeter;whiteSpace=wrap;html=1;" parent="1" vertex="1">
          <mxGeometry x="960" y="675" width="120" height="60" as="geometry" />
        </mxCell>
        <mxCell id="k3wcYFaPdhqrJYiVyXbm-48" value="NO" style="text;html=1;align=center;verticalAlign=middle;resizable=0;points=[];autosize=1;" parent="1" vertex="1">
          <mxGeometry x="720" y="680" width="30" height="20" as="geometry" />
        </mxCell>
        <mxCell id="k3wcYFaPdhqrJYiVyXbm-49" value="YES" style="text;html=1;align=center;verticalAlign=middle;resizable=0;points=[];autosize=1;" parent="1" vertex="1">
          <mxGeometry x="690" y="790" width="40" height="20" as="geometry" />
        </mxCell>
        <mxCell id="k3wcYFaPdhqrJYiVyXbm-57" value="NO" style="text;html=1;align=center;verticalAlign=middle;resizable=0;points=[];autosize=1;" parent="1" vertex="1">
          <mxGeometry x="840" y="670" width="30" height="20" as="geometry" />
        </mxCell>
        <mxCell id="k3wcYFaPdhqrJYiVyXbm-62" value="" style="edgeStyle=orthogonalEdgeStyle;rounded=0;orthogonalLoop=1;jettySize=auto;html=1;" parent="1" source="k3wcYFaPdhqrJYiVyXbm-58" target="k3wcYFaPdhqrJYiVyXbm-61" edge="1">
          <mxGeometry relative="1" as="geometry" />
        </mxCell>
        <mxCell id="k3wcYFaPdhqrJYiVyXbm-58" value="Add a Limb" style="shape=parallelogram;perimeter=parallelogramPerimeter;whiteSpace=wrap;html=1;" parent="1" vertex="1">
          <mxGeometry x="695" y="850" width="120" height="60" as="geometry" />
        </mxCell>
        <mxCell id="k3wcYFaPdhqrJYiVyXbm-61" value="STOP&lt;br&gt;YOU Loose" style="rounded=1;whiteSpace=wrap;html=1;align=center;" parent="1" vertex="1">
          <mxGeometry x="695" y="990" width="120" height="60" as="geometry" />
        </mxCell>
        <mxCell id="k3wcYFaPdhqrJYiVyXbm-67" value="&lt;span style=&quot;background-color: rgb(27 , 30 , 31) ; color: rgb(232 , 230 , 227) ; font-family: &amp;#34;helvetica&amp;#34; ; float: none ; display: inline&quot;&gt;SET Lives to 6&lt;/span&gt;&lt;br style=&quot;background-color: rgb(27 , 30 , 31) ; color: rgb(232 , 230 , 227) ; font-family: &amp;#34;helvetica&amp;#34;&quot;&gt;&lt;span style=&quot;background-color: rgb(27 , 30 , 31) ; color: rgb(232 , 230 , 227) ; font-family: &amp;#34;helvetica&amp;#34; ; float: none ; display: inline&quot;&gt;Set SOLUTION to Blank list&lt;/span&gt;" style="shape=parallelogram;perimeter=parallelogramPerimeter;whiteSpace=wrap;html=1;" parent="1" vertex="1">
          <mxGeometry x="290" y="310" width="220" height="60" as="geometry" />
        </mxCell>
        <mxCell id="k3wcYFaPdhqrJYiVyXbm-68" value="" style="edgeStyle=orthogonalEdgeStyle;rounded=0;orthogonalLoop=1;jettySize=auto;html=1;" parent="1" source="k3wcYFaPdhqrJYiVyXbm-4" target="k3wcYFaPdhqrJYiVyXbm-67" edge="1">
          <mxGeometry relative="1" as="geometry">
            <mxPoint x="400" y="260" as="sourcePoint" />
            <mxPoint x="400" y="410" as="targetPoint" />
          </mxGeometry>
        </mxCell>
        <mxCell id="k3wcYFaPdhqrJYiVyXbm-72" value="" style="edgeStyle=orthogonalEdgeStyle;rounded=0;orthogonalLoop=1;jettySize=auto;html=1;" parent="1" source="k3wcYFaPdhqrJYiVyXbm-69" edge="1">
          <mxGeometry relative="1" as="geometry">
            <mxPoint x="400" y="1150" as="targetPoint" />
          </mxGeometry>
        </mxCell>
        <mxCell id="k3wcYFaPdhqrJYiVyXbm-76" style="edgeStyle=orthogonalEdgeStyle;rounded=0;orthogonalLoop=1;jettySize=auto;html=1;exitX=0;exitY=0.5;exitDx=0;exitDy=0;entryX=0;entryY=0.5;entryDx=0;entryDy=0;" parent="1" source="k3wcYFaPdhqrJYiVyXbm-69" target="k3wcYFaPdhqrJYiVyXbm-20" edge="1">
          <mxGeometry relative="1" as="geometry">
            <Array as="points">
              <mxPoint x="150" y="1020" />
              <mxPoint x="150" y="440" />
            </Array>
          </mxGeometry>
        </mxCell>
        <mxCell id="k3wcYFaPdhqrJYiVyXbm-69" value="Solution == Dictionar Word" style="rhombus;whiteSpace=wrap;html=1;" parent="1" vertex="1">
          <mxGeometry x="325" y="955" width="150" height="130" as="geometry" />
        </mxCell>
        <mxCell id="k3wcYFaPdhqrJYiVyXbm-73" value="STOP&lt;br&gt;You Win" style="rounded=1;whiteSpace=wrap;html=1;align=center;" parent="1" vertex="1">
          <mxGeometry x="340" y="1130" width="120" height="60" as="geometry" />
        </mxCell>
        <mxCell id="k3wcYFaPdhqrJYiVyXbm-74" value="YES" style="text;html=1;align=center;verticalAlign=middle;resizable=0;points=[];autosize=1;" parent="1" vertex="1">
          <mxGeometry x="420" y="1090" width="40" height="20" as="geometry" />
        </mxCell>
        <mxCell id="k3wcYFaPdhqrJYiVyXbm-75" value="NO" style="text;html=1;align=center;verticalAlign=middle;resizable=0;points=[];autosize=1;" parent="1" vertex="1">
          <mxGeometry x="290" y="990" width="30" height="20" as="geometry" />
        </mxCell>
      </root>
    </mxGraphModel>
  </diagram>
</mxfile>
